<?xml version="1.0" encoding="utf-8"?>
<!-- Generator: Adobe Illustrator 25.4.1, SVG Export Plug-In . SVG Version: 6.00 Build 0)  -->
<svg version="1.1" id="Layer_1" xmlns="http://www.w3.org/2000/svg" xmlns:xlink="http://www.w3.org/1999/xlink" x="0px" y="0px"
	 viewBox="0 0 2194 2500" style="enable-background:new 0 0 2194 2500;" xml:space="preserve">
<style type="text/css">
	.st0{fill:#4F4F4F;stroke:#FCBB94;stroke-miterlimit:10;}
	.st1{fill:#4F4F4F;}
</style>
<g>
	<path class="st0" d="M2199.5,2347c145.3-0.8,282.1-183.5,366.1-463c284.8,62.9,510.9,33.1,582.7-93.4
		c16.8-29.2,24.7-63.2,24.5-100.3l-99.7,0.5c0.1,20.6-3.8,37.1-11.4,51c-34.6,61-167.2,88.1-338.2,68.4
		c-42.1-4.7-86.4-12.5-131.6-22.1c21-87.8,37.1-183.6,47.3-284.2c82.4-60.8,157.2-123.8,222.6-187.2
		c136.3,145.1,211.2,281.5,211.7,374.6l99.7-0.5c-0.6-123-89.1-283.5-242-445.5c150.3-163.6,236.2-325,235.6-448l-99.7,0.5
		c0.5,92.6-72.6,230.2-206.4,376.7c-66.1-62.3-141.1-124.5-224.1-183.5c-11.3-101-28.3-196.6-50.7-284.2
		c44.7-10.5,88-18.3,129.6-23.9c170.7-21.9,303.7,3.3,339.3,63.5c8.1,13.4,11.8,30.8,11.9,51.4l99.7-0.5
		c-0.2-37.6-8.4-71.5-25.6-100.9c-73.1-125.3-299.1-152.3-582.3-86C2471.2,332.7,2332.9,152.3,2188,153
		c-145.3,0.8-282.1,183.5-366.1,463c-284.8-62.9-510.9-33.1-582.7,93.4c-16.8,29.2-24.7,63.2-24.5,100.8
		c0.6,123,89.1,283.5,242,445.5c-150.3,163.6-236.2,325-235.6,448c0.2,37.6,8.4,71.5,25.6,100.9c73.1,125.3,299.1,152.3,582.3,86
		C1915.9,2167.3,2054.6,2347.7,2199.5,2347L2199.5,2347z M2494.8,1763.2c-57.8-16.2-117.4-36.5-177-59.4
		c35.7-18.5,71.4-37.9,107-59.1c35.7-20.8,70.4-42.9,104.3-64.9C2520.1,1643.2,2508.8,1704.5,2494.8,1763.2L2494.8,1763.2z
		 M2017.4,1560.8c-60.6-34.6-118-70-171.4-106.9c-6.2-66.6-9.6-134.1-10-202.1c-0.4-67.5,2.4-135.1,7.4-201.3
		c53-37.4,109.6-73.9,169.4-109.1c58.4-34.3,117.7-65.5,177.5-93.9c60.1,27.4,120.2,58.4,178.9,91.6c60.6,34.6,118,70,171.4,106.9
		c6.2,66.6,9.6,134.1,10,202.1c0.4,67.5-2.4,135.1-7.4,201.3c-53,37.4-109.6,73.9-169.4,109.1c-58.4,34.3-117.7,65.5-177.5,93.9
		C2136.3,1624.6,2076.2,1594.1,2017.4,1560.8L2017.4,1560.8z M2076.3,1705c-59.8,24.5-119.6,45.3-177.7,62.6
		c-14.6-58.5-27-120.2-36.7-184.1c34.5,21.7,70,43.5,106.3,63.8C2004.1,1667.8,2040.4,1686.8,2076.3,1705L2076.3,1705z M1596.8,1254
		c42.7-41.8,90.3-83.7,142.5-125.1c-1.6,40.3-2.7,81.4-2.5,123c0.2,42,1.3,83.6,3.8,124.3C1688,1336.3,1639.9,1294.9,1596.8,1254z
		 M1858.4,919.9c9.1-63.6,20.4-124.9,34.4-183.5c57.8,16.2,117.4,36.5,177,59.4c-35.7,18.5-71.4,37.9-107,59.1
		C1927.1,876.2,1892.3,897.8,1858.4,919.9z M2790.8,1245.5c-42.7,41.8-90.3,83.7-142.5,125.1c1.6-40.3,2.7-81.4,2.5-123
		c-0.2-42-1.3-83.6-3.8-124.3C2699.6,1163.3,2747.6,1204.6,2790.8,1245.5z M2525.7,916c-34.5-21.7-70-43.5-106.3-63.8
		c-35.9-20.4-71.8-39.4-107.6-57.6c59.8-24.5,119.6-45.3,177.7-62.6C2503.5,790.4,2515.9,852.1,2525.7,916L2525.7,916z
		 M1963.6,514.2c66.7-158.7,154.7-261.5,224.9-261.9s159.7,101.6,227.6,259.5c16.7,38.4,31.7,80.3,45.8,123.6
		c-87.5,25.9-178.6,60-271.8,102c-93.2-40.7-184.2-73.3-271.5-97.9C1932.3,595.3,1947.3,553.2,1963.6,514.2L1963.6,514.2z
		 M1325.8,758.1c34.6-61,167.2-88.1,338.2-68.4c42.1,4.7,86.4,12.5,131.6,22.1c-21,87.8-37.1,183.6-47.3,284.2
		c-82.4,60.8-157.2,123.8-222.6,187.2c-136.3-145.1-211.2-281.5-211.7-374.6C1314.4,788.6,1318.3,771.6,1325.8,758.1L1325.8,758.1z
		 M1672.2,1817.1c-170.7,21.9-303.7-3.3-339.3-63.5c-8.1-13.4-11.8-30.8-11.9-51.4c-0.5-92.6,72.6-230.2,206.4-376.7
		c66.1,62.3,141.1,124.5,224.1,183.5c11.3,101,28.3,196.6,50.7,284.2C1757.1,1803.7,1713.7,1812,1672.2,1817.1z M1971.3,1987.7
		c-16.7-38.4-31.7-80.3-45.8-123.6c87.5-25.9,178.6-60,271.8-102c93.2,40.7,184.2,73.3,271.5,97.9c-13.6,44.3-28.6,86.5-45,125.9
		c-66.7,158.7-154.7,261.5-224.9,261.9C2128.8,2247.6,2039.3,2145.7,1971.3,1987.7L1971.3,1987.7z"/>
	<circle class="st1" cx="2193.6" cy="1250.2" r="204.4"/>
</g>
</svg>
